<?xml version="1.0" encoding="UTF-8"?>
<!DOCTYPE svg PUBLIC "-//W3C//DTD SVG 1.1//EN" "http://www.w3.org/Graphics/SVG/1.1/DTD/svg11.dtd">
<!-- Creator: CorelDRAW -->
<svg xmlns="http://www.w3.org/2000/svg" xml:space="preserve" width="37px" height="34px" style="shape-rendering:geometricPrecision; text-rendering:geometricPrecision; image-rendering:optimizeQuality; fill-rule:evenodd; clip-rule:evenodd"
viewBox="0 0 5.41667 4.92174"
 xmlns:xlink="http://www.w3.org/1999/xlink">
 <defs>
  <style type="text/css">
  cursor:pointer;
   <![CDATA[
    .str1 {stroke:#FD8F29;stroke-width:0.110777;stroke-linecap:round;stroke-linejoin:round}
    .str2 {stroke:#FD8F29;stroke-width:0.155088;stroke-linecap:round;stroke-linejoin:round}
    .str0 {stroke:#FD8F29;stroke-width:0.236053;stroke-linecap:round;stroke-linejoin:round}
    .str3 {stroke:#333333;stroke-width:0.274498;stroke-linecap:round;stroke-linejoin:round}
    .fil0 {fill:none}
    .fil1 {fill:white}
   ]]>
  </style>
 </defs>
 <g id="Layer_x0020_1">
  <metadata id="CorelCorpID_0Corel-Layer"/>
  <g>
   <path class="fil0 str0" d="M0.781589 0.467844c0.742893,-0.569656 1.80733,-0.429154 2.37699,0.313733 0.363554,0.474122 0.437799,1.07919 0.25087,1.60304 -0.0393505,0.0117297 -0.0771447,0.0247306 -0.112919,0.0388432 -0.565169,0.223042 -0.81277,-0.318082 -1.11622,-0.682641 -0.131068,-0.157458 -0.654034,0.0517502 -0.417875,0.356543 0.29436,0.379749 0.650521,0.763528 0.939918,1.1595 -0.731207,0.451511 -1.70036,0.284587 -2.23449,-0.412004 -0.569672,-0.742902 -0.429179,-1.80733 0.313733,-2.37701z"/>
  </g>
  <g>
   <path class="fil0 str1" d="M1.32925 1.18208c0.348515,-0.26724 0.847871,-0.201336 1.11511,0.147185 0.197748,0.257865 0.213035,0.598292 0.0664608,0.866208 -0.12593,-0.136025 -0.23547,-0.307426 -0.354135,-0.449995 -0.122632,-0.147322 -0.611941,0.0484217 -0.390981,0.333597 0.117835,0.152013 0.246257,0.304721 0.375851,0.458707 -0.32932,0.149549 -0.72998,0.0586891 -0.959482,-0.240584 -0.267234,-0.348518 -0.20134,-0.847874 0.147178,-1.11512z"/>
  </g>
  <g>
   <path class="fil0 str2" d="M1.13566 0.929622c0.487931,-0.374153 1.18702,-0.281875 1.56115,0.206043 0.282843,0.368843 0.299078,0.858345 0.0794023,1.23694 -0.00345377,0.00596191 -0.00696704,0.0119019 -0.0105429,0.0178106 -0.250378,-0.110821 -0.417844,-0.415311 -0.608988,-0.644941 -0.0536634,-0.06446 -0.177504,-0.0632388 -0.281331,-0.0175914 -0.465232,0.204477 0.31558,0.866214 0.475553,1.0605 -0.47415,0.262174 -1.08162,0.145343 -1.42129,-0.297616 -0.37415,-0.487915 -0.281875,-1.18701 0.206043,-1.56114z"/>
  </g>
  <g>
   <path class="fil0 str3" d="M3.47702 2.47171c0.551126,-0.217509 1.51197,-0.209769 1.74524,0.484962 0.176728,0.526307 -0.0694167,1.28514 -0.52812,1.59234 -0.571667,0.382849 -1.44623,0.209706 -2.14578,0.101976 -0.485,-0.0848977 -0.483234,-0.509946 -0.146984,-0.61934 0.326486,-0.106221 0.832353,0.0960637 0.605619,-0.266701 -0.360229,-0.576417 -0.891468,-1.12797 -1.31345,-1.67237 -0.274548,-0.354304 0.333406,-0.597534 0.485792,-0.414478 0.352808,0.423796 0.640626,1.0529 1.29768,0.79361z"/>
   <path id="1" class="fil1" d="M3.47702 2.47171c0.551126,-0.217509 1.51197,-0.209769 1.74524,0.484962 0.176728,0.526307 -0.0694167,1.28514 -0.52812,1.59234 -0.571667,0.382849 -1.44623,0.209706 -2.14578,0.101976 -0.485,-0.0848977 -0.483234,-0.509946 -0.146984,-0.61934 0.326486,-0.106221 0.832353,0.0960637 0.605619,-0.266701 -0.360229,-0.576417 -0.891468,-1.12797 -1.31345,-1.67237 -0.274548,-0.354304 0.333406,-0.597534 0.485792,-0.414478 0.352808,0.423796 0.640626,1.0529 1.29768,0.79361z"/>
  </g>
 </g>
</svg>
