<?xml version="1.0" encoding="UTF-8"?>
<!DOCTYPE svg PUBLIC "-//W3C//DTD SVG 1.1//EN" "http://www.w3.org/Graphics/SVG/1.1/DTD/svg11.dtd">
<!-- Creator: CorelDRAW -->
<svg xmlns="http://www.w3.org/2000/svg" xml:space="preserve" width="2400px" height="900px" style="shape-rendering:geometricPrecision; text-rendering:geometricPrecision; image-rendering:optimizeQuality; fill-rule:evenodd; clip-rule:evenodd"
viewBox="0 0 1542.75 553.92"
 xmlns:xlink="http://www.w3.org/1999/xlink">
 <defs>
  <style type="text/css">
   <![CDATA[
    .fil1 {fill:#329E9C}
    .fil0 {fill:#5C2A79}
    .fil2 {fill:#5C2A7E}
    .fil5 {fill:#58595B;fill-rule:nonzero}
    .fil3 {fill:#5C2A79;fill-rule:nonzero}
    .fil4 {fill:#ED1C24;fill-rule:nonzero}
   ]]>
  </style>
 </defs>
 <g id="Layer_x0020_1">
  <metadata id="CorelCorpID_0Corel-Layer"/>
  <path class="fil0" d="M0 414.23c0,0 31.5846,36.4368 103.02,62.4478 217.153,79.0708 331.856,-49.4117 469.401,-181.129 35.1015,-33.6142 63.17,-54.971 93.1663,-76.4057 0,0 21.5842,-15.6416 57.45,-34.6203 183.888,-97.3067 412.402,-65.4048 589.237,45.4717 102.023,63.9685 197.566,161.361 229.554,278.655l-34.474 -109.963 -108.561 -125.263c0,0 -144.585,-111.602 -252.767,-132.935 0,0 -160.394,-42.2506 -291.55,-15.4777 -131.156,26.7729 -179.704,63.2344 -298.286,160.104 -118.582,96.8701 -191.235,222.968 -379.129,186.224 0,0 -86.5428,-2.05988 -177.061,-57.1096z"/>
  <path class="fil1" d="M1542.75 514.72l-30.0631 -106.891c0,0 -34.3173,-76.3047 -138.321,-155.367 -117.96,-89.6685 -263.949,-141.082 -412.865,-139.494 -35.7719,0.381754 -72.507,4.43312 -107.698,14.2712 325.783,-30.7996 559.857,91.7617 688.947,387.48z"/>
  <path class="fil0" d="M312.09 437.38c0,0 -53.4456,38.414 -128.603,30.0631 121.654,44.0775 258.179,-82.6609 339.7,-164.375 76.6109,-76.7898 230.213,-204.964 470.334,-201.393 347.507,5.16799 500.524,248.558 495.207,242.175l-37.5789 -45.0947 -71.8175 -61.7964 -24.2175 -19.207 -26.7228 -17.5368c0,0 -100.211,-59.6093 -146.975,-71.8175 -46.7641,-12.2082 -160.685,-62.8105 -329.024,-27.2795 -167.238,35.2979 -298.126,149.202 -298.126,149.202 0,0 -169.779,170.265 -242.175,187.059z"/>
  <path class="fil1" d="M1457.61 282.08l51.7754 96.8701c0.963134,1.8014 -131.351,-198.411 -347.396,-254.702 -218.562,-56.9466 -294.798,-22.9283 -293.951,-25.0526 0.847017,-2.1243 183.719,-52.6105 435.915,70.1473 0,0 71.8175,40.0842 153.656,112.737z"/>
  <path class="fil0" d="M415.748 333.116l50.9403 -65.9719c0,0 86.014,-85.1789 161.172,-131.944 0,0 61.5745,-38.2406 116.912,-57.621 76.9759,-26.9582 151.417,-44.2874 232.803,-39.2857 22.9323,1.40931 46.4698,2.36767 70.774,5.59985 17.7357,2.35813 36.7558,5.29604 55.375,9.86039 78.9165,19.347 139.055,35.2606 204.216,72.9094 0.846221,-0.848607 -97.9843,-46.1883 -119.46,-47.2699 -1.84276,-0.0922572 -4.03466,-1.16992 -6.96224,-1.99466 -29.6957,-8.36916 -116.938,-44.9929 -286.828,-27.67 -109.318,11.1472 -247.69,76.5361 -337.562,153.977 -60.3227,51.9774 -99.4684,91.7951 -141.38,129.411z"/>
  <path class="fil0" d="M394.033 363.593c0,0 -44.2596,40.0842 -74.3227,59.2912 0,0 75.9929,-34.2386 133.614,-92.6946 38.7138,-39.2745 117.711,-119.378 202.433,-173.505 113.678,-72.6263 255.796,-95.3455 383.695,-83.8141 39.6937,3.57815 82.5432,12.3513 127.871,25.9998 0,0 117.747,35.9087 196.245,91.0245l-17.5368 -23.3824c0,0 -110.231,-70.9832 -242.175,-91.8596 -14.8168,-2.34381 -28.004,-5.83766 -41.1547,-7.67405 -60.038,-8.38745 -105.577,-10.9126 -155.026,-6.13113 -90.4168,8.74217 -176.096,35.2407 -253.317,83.5811 -88.9614,55.69 -177.85,138.37 -260.327,219.164z"/>
  <path class="fil1" d="M1457.66 271.876l-62.6315 -78.4982c0,0 -126.098,-89.3543 -263.052,-118.582 -136.954,-29.228 -241.794,-13.8736 -253.907,-10.1085 1.60019,-3.60598 95.8314,-8.79625 178.221,2.11873 44.2238,5.85754 91.9447,20.1335 134.424,34.3054 58.6454,19.5649 149.837,61.6366 266.945,170.765z"/>
  <path class="fil1" d="M1372.75 169.432l-71.8175 -56.7859c0,0 -217.285,-109.786 -428.063,-69.0895 0,0 141.231,-19.1028 259.395,18.7974 118.164,37.9002 101.644,22.2777 240.486,107.078z"/>
  <path class="fil2" d="M472.531 248.348l39.2491 -51.7754c0,0 194.482,-184.747 444.695,-178.124 0,0 206.84,9.2122 274.169,51.5583 0,0 -411.552,-179.911 -758.113,178.341z"/>
  <path class="fil0" d="M538.529 166.432l36.3263 -42.1806c0,0 133.614,-98.5403 280.589,-115.242 146.975,-16.7017 268.063,8.35087 268.063,8.35087 0,0 -347.814,-68.8859 -584.978,149.072z"/>
  <path class="fil1" d="M1206.88 44.53l-53.0471 -23.4254c0,0 -147.446,-40.5781 -306.169,-9.20345 0,0 41.9842,-5.02563 84.036,-7.23185 32.7306,-1.7163 67.0432,-1.02278 99.7961,1.94535 33.8123,3.06437 92.3026,12.0849 175.384,37.9153z"/>
  <path class="fil1" d="M1288.01 94.1382l-53.4456 -30.8982c0,0 -148.645,-59.2912 -349.066,-42.5894 0,0 205.431,-19.207 402.512,73.4876z"/>
  <polygon class="fil3" points="736.441,456.4 756.34,456.4 756.34,370.472 756.641,370.472 775.786,456.4 792.67,456.4 811.815,370.472 812.116,370.472 812.116,456.4 832.015,456.4 832.015,348.765 799.906,348.765 784.379,424.743 784.077,424.743 768.701,348.765 736.441,348.765 "/>
  <path id="1" class="fil3" d="M905.882 419.014l0 -4.67331c0.0254503,-6.23134 -0.376982,-11.8845 -1.23116,-16.934 -0.854175,-5.02484 -2.36131,-9.37206 -4.52219,-12.9645 -2.16089,-3.61791 -5.17595,-6.38165 -9.06984,-8.31667 -3.86924,-1.93422 -8.84397,-2.91406 -14.8741,-2.93951 -5.57759,0.0254503 -10.2763,0.778619 -14.1201,2.2611 -3.84458,1.50793 -6.95985,3.56781 -9.34661,6.23134 -2.38676,2.66273 -4.24622,5.75335 -5.50203,9.29571 -1.28206,3.5177 -2.16089,7.33683 -2.63808,11.4319 -0.452538,4.0959 -0.678409,8.31667 -0.653754,12.6885 -0.0246549,4.06966 0.0755555,8.16556 0.376982,12.2607 0.276772,4.12056 0.92973,8.0399 1.98512,11.7588 1.02994,3.71813 2.68818,7.00916 4.92463,9.92401 2.2611,2.91406 5.32626,5.2006 9.22015,6.8843 3.92014,1.6829 8.86942,2.56252 14.8494,2.58797 6.50732,-0.0254503 11.9091,-1.1564 16.1546,-3.44215 4.27167,-2.2611 7.48795,-5.57759 9.64804,-9.94946 2.16089,-4.37188 3.36659,-9.69814 3.59326,-16.005l-18.6932 0c-0.376982,3.31649 -1.00449,6.10568 -1.83401,8.36678 -0.854175,2.2611 -2.00978,3.96945 -3.49225,5.12584 -1.48248,1.1556 -3.39204,1.733 -5.67859,1.733 -1.90877,-0.0246549 -3.51691,-0.552748 -4.84907,-1.60734 -1.30592,-1.05539 -2.36131,-2.46231 -3.16538,-4.24622 -0.778619,-1.7839 -1.35682,-3.79368 -1.70835,-6.03012 -0.351532,-2.23644 -0.528093,-4.57309 -0.528093,-6.95985l0 -6.48187 41.1547 0zm-41.1547 -12.3617l0 -3.16538c0,-1.90957 0.151111,-3.81913 0.502643,-5.70325 0.351532,-1.88491 0.92973,-3.61791 1.7338,-5.2014 0.828724,-1.55724 1.90957,-2.81385 3.29104,-3.76823 1.38227,-0.95518 3.11607,-1.43237 5.17595,-1.45782 2.8393,0 4.97473,0.753964 6.45721,2.26189 1.48248,1.48168 2.48697,3.66802 3.06517,6.53197 0.578198,2.86475 0.92973,6.38165 1.02994,10.5022l-21.2557 0z"/>
  <path id="12" class="fil3" d="M935.58 415.848c-0.0246549,-5.87901 0.226666,-10.8036 0.804069,-14.7476 0.578198,-3.97024 1.63359,-6.9344 3.21628,-8.94497 1.58269,-1.98433 3.84379,-2.98961 6.8334,-2.98961 3.04051,0 5.35171,1.00529 6.9352,2.98961 1.60734,2.01057 2.68818,4.97473 3.26559,8.94497 0.578198,3.944 0.82952,8.86862 0.804069,14.7476 0.0254503,5.87981 -0.225871,10.8036 -0.804069,14.7484 -0.577403,3.97024 -1.65824,6.9344 -3.26559,8.94497 -1.58348,1.98433 -3.89469,2.98961 -6.9352,2.98961 -2.98961,0 -5.25071,-1.00529 -6.8334,-2.98961 -1.58269,-2.01057 -2.63808,-4.97473 -3.21628,-8.94497 -0.577403,-3.94479 -0.828724,-8.86862 -0.804069,-14.7484zm22.7629 40.5518l19.8989 0 0 -107.635 -20.8032 0 0 34.0692 -0.301427 0c-2.16089,-3.24093 -4.6232,-5.65314 -7.43705,-7.26128 -2.81385,-1.58269 -6.15578,-2.38676 -10.0497,-2.38676 -5.67859,-0.0246549 -10.3519,1.43237 -14.0199,4.34643 -3.66802,2.9403 -6.40631,7.56271 -8.19021,13.8442 -1.7839,6.3061 -2.66353,14.447 -2.66353,24.4712 0,10.025 0.879625,18.1659 2.66353,24.472 1.7839,6.28144 4.52219,10.8792 8.19021,13.8187 3.66802,2.93951 8.34133,4.39653 14.0199,4.37188 4.045,0.0246549 7.56271,-0.82952 10.5523,-2.53787 2.98961,-1.70835 5.60304,-4.42198 7.83868,-8.16556l0.301427 0 0 8.59265z"/>
  <path id="123" class="fil3" d="M992.864 456.4l20.8032 0 0 -81.1028 -20.8032 0 0 81.1028zm0 -91.0523l20.8032 0 0 -17.7881 -20.8032 0 0 17.7881z"/>
  <path id="1234" class="fil3" d="M1087.23 404.542c0,-6.4071 -1.1055,-11.96 -3.29104,-16.6333 -2.18634,-4.67331 -5.42727,-8.29122 -9.74825,-10.8537 -4.32177,-2.53787 -9.67349,-3.84379 -16.0551,-3.86924 -4.79897,-0.0501052 -9.22095,0.628303 -13.2158,1.98512 -3.9949,1.35682 -7.4617,3.64336 -10.4012,6.85885 -2.91485,3.21628 -5.2014,7.56271 -6.80954,13.0902 -1.60734,5.52748 -2.41141,12.4364 -2.43686,20.7277 0,8.11545 0.653754,14.8995 1.93502,20.4016 1.28126,5.50283 3.21548,9.87391 5.80346,13.1403 2.56252,3.26638 5.80425,5.60304 9.69814,7.03541 3.86924,1.43158 8.41688,2.10999 13.6175,2.08533 7.31138,-0.0254503 13.2413,-1.30671 17.7889,-3.86924 4.54764,-2.56332 7.88879,-6.33155 9.99957,-11.2562 2.11078,-4.92463 3.14072,-10.9293 3.11527,-18.0395l-19.8989 0c0.0254503,6.53197 -0.804069,11.3309 -2.43686,14.4216 -1.65824,3.06517 -4.19611,4.59775 -7.66292,4.5723 -3.09062,0.0254503 -5.42727,-0.928935 -7.03541,-2.8894 -1.63279,-1.95967 -2.73829,-5.02484 -3.31649,-9.1955 -0.577403,-4.17066 -0.828724,-9.59714 -0.804069,-16.2556 -0.0246549,-4.67331 0.125661,-8.74376 0.427087,-12.2106 0.302222,-3.49225 0.85497,-6.38165 1.68369,-8.6682 0.82952,-2.3112 2.03523,-4.02035 3.61791,-5.1505 1.58269,-1.1556 3.64336,-1.70835 6.18044,-1.70835 1.96047,0.0246549 3.54315,0.501847 4.77431,1.43158 1.23116,0.95518 2.18554,2.18634 2.8385,3.76903 0.678409,1.55803 1.13095,3.31649 1.38227,5.22605 0.251321,1.90957 0.376982,3.86924 0.351532,5.85436l19.8989 0z"/>
  <polygon id="12345" class="fil3" points="1111.96,456.4 1136.23,456.4 1148.29,378.312 1148.59,378.312 1160.65,456.4 1184.92,456.4 1204.52,348.765 1183.71,348.765 1171.8,428.361 1171.5,428.361 1158.84,348.765 1138.03,348.765 1125.37,428.361 1125.07,428.361 1113.16,348.765 1092.36,348.765 "/>
  <path id="123456" class="fil3" d="M1228.48 400.019l0 -2.2611c0,-2.08533 0.376982,-3.91934 1.1055,-5.47737 0.728514,-1.55724 1.7839,-2.76374 3.21628,-3.61791 1.43158,-0.854175 3.21548,-1.30671 5.32626,-1.30671 3.44215,0.0254503 5.90446,0.905075 7.43705,2.61342 1.50713,1.70835 2.23565,4.12056 2.21099,7.18572 0.0246549,1.80856 -0.251321,3.29104 -0.778619,4.52219 -0.528093,1.2065 -1.40772,2.21099 -2.61342,2.98961 -1.20571,0.804069 -2.8393,1.45782 -4.89918,2.01057l-11.7588 3.16538c-3.56781,0.979835 -6.65763,2.13544 -9.24561,3.49225 -2.58797,1.35682 -4.72341,3.01506 -6.38165,4.97473 -1.65824,1.95967 -2.8894,4.32177 -3.69347,7.08551 -0.778619,2.78839 -1.18105,6.05478 -1.18105,9.87391 0,2.76374 0.326877,5.50283 1.02994,8.21566 0.703859,2.73909 1.80935,5.22605 3.34194,7.48715 1.53258,2.26189 3.54236,4.07045 6.05478,5.42727 2.51321,1.38147 5.55293,2.08533 9.17084,2.11078 3.29183,0.0246549 6.20589,-0.251321 8.69365,-0.854175 2.51242,-0.603649 4.74807,-1.68369 6.68308,-3.21628 1.93422,-1.53258 3.69347,-3.69347 5.27616,-6.48266l0.301427 0c0.275976,1.38227 0.628303,2.81464 1.00449,4.27167 0.376982,1.48248 0.905075,2.86395 1.55803,4.17066l19.8989 0c-0.703064,-1.53258 -1.23116,-3.01506 -1.60814,-4.47209 -0.376982,-1.45703 -0.628303,-3.06517 -0.753169,-4.82442 -0.151111,-1.7839 -0.201216,-3.91934 -0.201216,-6.38165l0 -42.8121c0.0501052,-3.64336 -0.326877,-6.95985 -1.1055,-9.97491 -0.804069,-3.01506 -2.23644,-5.60304 -4.32177,-7.81403 -2.08533,-2.21099 -5.07494,-3.89389 -8.94418,-5.10039 -3.86924,-1.20571 -8.89407,-1.80856 -15.0244,-1.83401 -3.94479,-0.0246549 -7.63826,0.402432 -11.055,1.28126 -3.44215,0.854175 -6.45721,2.2611 -9.07063,4.19611 -2.61263,1.93422 -4.64786,4.49754 -6.13033,7.68837 -1.45703,3.19083 -2.21099,7.08472 -2.23565,11.7079l0 1.95967 18.6924 0zm19.2961 31.758c-0.0254503,2.23644 -0.427087,4.14521 -1.20571,5.7287 -0.804069,1.60814 -1.83481,2.8894 -3.11607,3.89389 -1.25581,1.00529 -2.63808,1.75925 -4.14521,2.23644 -1.48248,0.477193 -2.93951,0.703064 -4.34643,0.703064 -1.85946,-0.0246549 -3.36739,-0.552748 -4.52299,-1.55724 -1.1556,-1.02994 -1.98433,-2.38676 -2.51242,-4.0959 -0.552748,-1.70835 -0.804069,-3.59246 -0.804069,-5.70325 -0.0501052,-3.59246 0.854175,-6.48187 2.71363,-8.6173 1.85946,-2.13623 4.87452,-3.64336 9.04518,-4.52299 1.30592,-0.301427 2.76374,-0.804069 4.34643,-1.48248 1.55803,-0.677613 3.09062,-1.55724 4.54764,-2.61263l0 16.0297z"/>
  <path id="1234567" class="fil3" d="M1282.45 456.4l20.8032 0 0 -48.6919c0.0254503,-2.71363 0.477988,-5.00018 1.38227,-6.85885 0.90428,-1.88491 2.10999,-3.39204 3.59246,-4.52299 1.48248,-1.1556 3.14072,-1.95967 4.95008,-2.48697 1.80856,-0.502643 3.61791,-0.753964 5.45192,-0.753964 1.05539,0 2.13544,0.0254503 3.24093,0.10021 1.1055,0.0509005 2.18554,0.125661 3.24093,0.201216l0 -19.8989c-0.602853,-0.0755555 -1.23116,-0.150316 -1.88412,-0.200421 -0.652958,-0.0755555 -1.28126,-0.101006 -1.88412,-0.101006 -2.86475,0.0254503 -5.42727,0.552748 -7.73847,1.60814 -2.28655,1.08005 -4.34722,2.56252 -6.13033,4.49754 -1.80935,1.95967 -3.41749,4.22077 -4.82442,6.85885l-0.301427 0 0 -10.8537 -19.8989 0 0 81.1028z"/>
  <path id="12345678" class="fil3" d="M1391.59 419.014l0 -4.67331c0.0254503,-6.23134 -0.376982,-11.8845 -1.23116,-16.934 -0.854175,-5.02484 -2.36131,-9.37206 -4.52219,-12.9645 -2.16089,-3.61791 -5.17595,-6.38165 -9.06984,-8.31667 -3.86924,-1.93422 -8.84397,-2.91406 -14.8741,-2.93951 -5.57759,0.0254503 -10.2763,0.778619 -14.1201,2.2611 -3.84458,1.50793 -6.95985,3.56781 -9.34661,6.23134 -2.38676,2.66273 -4.24622,5.75335 -5.50203,9.29571 -1.28206,3.5177 -2.16089,7.33683 -2.63808,11.4319 -0.452538,4.0959 -0.678409,8.31667 -0.653754,12.6885 -0.0246549,4.06966 0.0755555,8.16556 0.376982,12.2607 0.276772,4.12056 0.92973,8.0399 1.98512,11.7588 1.02994,3.71813 2.68818,7.00916 4.92463,9.92401 2.2611,2.91406 5.32626,5.2006 9.22015,6.8843 3.92014,1.6829 8.86942,2.56252 14.8494,2.58797 6.50732,-0.0254503 11.9091,-1.1564 16.1546,-3.44215 4.27167,-2.2611 7.48795,-5.57759 9.64804,-9.94946 2.16089,-4.37188 3.36659,-9.69814 3.59326,-16.005l-18.6932 0c-0.376982,3.31649 -1.00449,6.10568 -1.83401,8.36678 -0.854175,2.2611 -2.00978,3.96945 -3.49225,5.12584 -1.48248,1.1556 -3.39204,1.733 -5.67859,1.733 -1.90877,-0.0246549 -3.51691,-0.552748 -4.84907,-1.60734 -1.30592,-1.05539 -2.36131,-2.46231 -3.16538,-4.24622 -0.778619,-1.7839 -1.35682,-3.79368 -1.70835,-6.03012 -0.351532,-2.23644 -0.528093,-4.57309 -0.528093,-6.95985l0 -6.48187 41.1547 0zm-41.1547 -12.3617l0 -3.16538c0,-1.90957 0.151111,-3.81913 0.502643,-5.70325 0.351532,-1.88491 0.92973,-3.61791 1.7338,-5.2014 0.828724,-1.55724 1.90957,-2.81385 3.29104,-3.76823 1.38227,-0.95518 3.11607,-1.43237 5.17595,-1.45782 2.8393,0 4.97473,0.753964 6.45721,2.26189 1.48248,1.48168 2.48697,3.66802 3.06517,6.53197 0.578198,2.86475 0.92973,6.38165 1.02994,10.5022l-21.2557 0z"/>
  <path class="fil4" d="M737.522 295.027c0,3.99251 -1.43237,7.42114 -4.29632,10.2859 -2.86475,2.86395 -6.29337,4.29632 -10.2859,4.29632 -4.16669,0 -7.682,-1.43237 -10.546,-4.29632 -2.86475,-2.86475 -4.29712,-6.29337 -4.29712,-10.2859 0,-4.08 1.43237,-7.59531 4.29712,-10.503 2.86395,-2.90769 6.37927,-4.34007 10.546,-4.34007 3.99251,0 7.42114,1.43237 10.2859,4.34007 2.86395,2.90769 4.29632,6.42301 4.29632,10.503zm-15.3632 59.762c0,5.38194 -1.82288,11.8049 -5.46863,19.2698l-28.3842 57.5486c-2.95064,5.90287 -4.42676,10.1555 -4.42676,12.7593 0,2.08374 0.694315,3.12482 2.08374,3.12482 2.86395,0 8.76682,-5.16402 17.707,-15.4936 4.16669,-4.94769 6.59719,-7.42114 7.2915,-7.42114 1.12856,0 2.12669,0.477193 2.95064,1.47532 0.824748,0.998128 1.21525,1.99626 1.21525,2.95144 0,1.21525 -3.34114,5.33819 -10.0688,12.4126 -6.72682,7.07438 -13.0631,12.6289 -19.009,16.6652 -5.94582,4.03625 -10.9373,6.07625 -14.9298,6.07625 -8.33258,0 -12.4993,-3.81913 -12.4993,-11.4574 0,-4.42676 1.90957,-10.7631 5.7287,-19.0098l28.3842 -57.2878c2.95064,-5.90287 4.42676,-10.3296 4.42676,-13.2811 0,-1.73539 -0.7818,-2.60388 -2.34381,-2.60388 -2.95144,0 -9.11438,5.42488 -18.4888,16.2754 -3.81913,4.42676 -5.98877,6.64013 -6.5097,6.64013 -1.12856,0 -2.04,-0.477193 -2.77806,-1.38863 -0.737262,-0.911438 -1.12776,-1.90957 -1.12776,-3.03813 0,-1.30194 3.34114,-5.46863 9.98207,-12.4993 6.64013,-7.03064 12.9327,-12.586 18.9223,-16.6222 5.98877,-4.03625 11.0239,-6.03251 15.1031,-6.03251 8.1592,0 12.2392,3.64496 12.2392,10.9365z"/>
  <polygon class="fil5" points="745.483,543.517 748.917,543.517 748.917,512.356 749.018,512.356 761.392,543.517 764.624,543.517 776.947,512.356 777.048,512.356 777.048,543.517 780.482,543.517 780.482,507.458 775.431,507.458 763.008,539.072 750.533,507.458 745.483,507.458 "/>
  <path id="1" class="fil5" d="M798.057 516.699c-1.99466,0.0174971 -3.76266,0.379368 -5.29445,1.10311 -1.53179,0.723742 -2.81941,1.7171 -3.85492,2.98802 -1.04346,1.27092 -1.83481,2.7359 -2.37403,4.3854 -0.529684,1.65824 -0.799297,3.42545 -0.799297,5.31115 0,1.88571 0.269614,3.65291 0.799297,5.31115 0.539228,1.6495 1.33057,3.11448 2.37403,4.3854 1.03551,1.27092 2.32313,2.26428 3.85492,2.98802 1.53179,0.723742 3.29979,1.08561 5.29445,1.10311 1.99466,-0.0174971 3.76266,-0.379368 5.29445,-1.10311 1.53179,-0.723742 2.81941,-1.7171 3.86367,-2.98802 1.04346,-1.27092 1.82606,-2.7359 2.36528,-4.3854 0.529684,-1.65824 0.799297,-3.42545 0.799297,-5.31115 0,-1.88571 -0.269614,-3.65291 -0.799297,-5.31115 -0.539228,-1.6495 -1.32182,-3.11448 -2.36528,-4.3854 -1.04426,-1.27092 -2.33188,-2.26428 -3.86367,-2.98802 -1.53179,-0.723742 -3.29979,-1.08561 -5.29445,-1.10311zm0 2.67705c1.22082,0.00874853 2.32313,0.21076 3.29979,0.622736 0.975859,0.404023 1.82606,0.967905 2.55855,1.68369 0.732491,0.723742 1.33853,1.54849 1.82685,2.49094 0.487532,0.943251 0.850198,1.95331 1.09357,3.02222 0.244164,1.07766 0.362666,2.17123 0.362666,3.29104 0,1.11981 -0.118503,2.21338 -0.362666,3.29104 -0.243368,1.06891 -0.606034,2.07897 -1.09357,3.02142 -0.488327,0.943251 -1.09436,1.768 -1.82685,2.48379 -0.732491,0.723742 -1.58269,1.28762 -2.55855,1.69165 -0.976654,0.411976 -2.07897,0.613988 -3.29979,0.622736 -1.22082,-0.00874853 -2.32313,-0.21076 -3.29979,-0.622736 -0.975859,-0.404023 -1.82606,-0.967905 -2.55855,-1.69165 -0.732491,-0.715789 -1.33853,-1.54054 -1.82685,-2.48379 -0.487532,-0.942455 -0.849403,-1.95251 -1.09357,-3.02142 -0.244164,-1.07766 -0.361871,-2.17123 -0.361871,-3.29104 0,-1.11981 0.117707,-2.21338 0.361871,-3.29104 0.244164,-1.06891 0.606034,-2.07897 1.09357,-3.02222 0.488327,-0.942455 1.09436,-1.7672 1.82685,-2.49094 0.732491,-0.715789 1.58269,-1.27967 2.55855,-1.68369 0.976654,-0.411976 2.07897,-0.613988 3.29979,-0.622736z"/>
  <polygon id="12" class="fil5" points="822.248,543.517 825.631,543.517 835.379,517.457 832.096,517.457 824.015,540.335 823.914,540.335 815.733,517.457 812.198,517.457 "/>
  <path id="123" class="fil5" d="M838.561 543.517l3.18128 0 0 -26.0595 -3.18128 0 0 26.0595zm0 -30.9587l3.18128 0 0 -5.10039 -3.18128 0 0 5.10039z"/>
  <path id="1234" class="fil5" d="M847.803 543.517l3.18128 0 0 -15.2018c0.0254503,-1.27888 0.227462,-2.46549 0.614783,-3.5519 0.378573,-1.07686 0.917005,-2.02807 1.61609,-2.82816 0.70704,-0.808046 1.55724,-1.43078 2.55855,-1.87696 0.993356,-0.446175 2.12987,-0.672841 3.39204,-0.68159 1.27967,0.00874853 2.34858,0.202011 3.20673,0.597286 0.858947,0.39607 1.53179,0.943251 2.03682,1.65824 0.497076,0.70704 0.850198,1.54054 1.06096,2.49174 0.218713,0.959157 0.319719,2.00341 0.311766,3.13118l0 16.2619 3.18128 0 0 -16.767c0.00874853,-1.55724 -0.143158,-2.95462 -0.462877,-4.19214 -0.311766,-1.23672 -0.833496,-2.28893 -1.56599,-3.16458 -0.723742,-0.8669 -1.70835,-1.54054 -2.93712,-1.99466 -1.22877,-0.462877 -2.75261,-0.699087 -4.57866,-0.699087 -1.24627,0.00874853 -2.42414,0.227462 -3.54395,0.665684 -1.11981,0.437426 -2.09567,1.05141 -2.92917,1.83481 -0.841449,0.782596 -1.45623,1.7004 -1.86026,2.75181l-0.101006 0 0 -4.49436 -3.18128 0 0 26.0595z"/>
  <path id="12345" class="fil5" d="M885.428 540.537c-1.46498,-0.00795321 -2.7359,-0.303017 -3.81356,-0.874853 -1.07686,-0.572631 -1.96921,-1.35523 -2.67625,-2.33188 -0.70704,-0.975859 -1.22877,-2.07897 -1.58269,-3.31649 -0.345169,-1.22877 -0.512982,-2.49969 -0.512982,-3.82947 0,-1.08561 0.101006,-2.15452 0.31097,-3.19878 0.21076,-1.04346 0.530479,-2.02807 0.967905,-2.93712 0.429473,-0.9178 0.984607,-1.72585 1.66699,-2.42414 0.672841,-0.699087 1.48089,-1.24627 2.41539,-1.64154 0.942455,-0.395274 2.01216,-0.597286 3.22423,-0.606034 1.20332,0.00874853 2.26348,0.218713 3.18128,0.631485 0.9178,0.411976 1.70835,0.984607 2.36528,1.7004 0.65614,0.723742 1.19537,1.53974 1.61609,2.46549 0.420725,0.926549 0.732491,1.90241 0.925753,2.92917 0.202011,1.02755 0.295064,2.05431 0.295064,3.08107 0,1.33853 -0.177357,2.62615 -0.539228,3.85492 -0.353122,1.22877 -0.883601,2.33188 -1.59064,3.30774 -0.698292,0.976654 -1.57394,1.7513 -2.6174,2.31518 -1.05221,0.571836 -2.25633,0.8669 -3.63621,0.874853zm11.5648 -23.0794l-3.18128 0 0 4.49436 -0.101006 0c-0.429473,-0.967905 -1.05221,-1.85151 -1.869,-2.64285 -0.808046,-0.791344 -1.7672,-1.41408 -2.86156,-1.88491 -1.09436,-0.471625 -2.28098,-0.715789 -3.5519,-0.724537 -1.88571,0.00874853 -3.5527,0.362666 -5.01688,1.04426 -1.45623,0.68159 -2.685,1.62405 -3.68711,2.82816 -1.00131,1.21207 -1.7672,2.6007 -2.28098,4.18339 -0.52173,1.57394 -0.782596,3.26559 -0.782596,5.07494 0,1.869 0.218713,3.61155 0.664888,5.22764 0.454924,1.60734 1.14447,3.03017 2.09567,4.25019 0.943251,1.22082 2.16327,2.17202 3.6537,2.86236 1.48964,0.68159 3.27354,1.03471 5.3533,1.04346 1.25343,-0.00874853 2.41539,-0.235415 3.4843,-0.68159 1.06891,-0.446175 2.01137,-1.06891 2.82816,-1.869 0.816795,-0.799297 1.47293,-1.7338 1.97001,-2.80271l0.101006 0 0 3.5352c0.00795321,2.12112 -0.286316,3.92252 -0.867695,5.37875 -0.588537,1.46419 -1.49759,2.57525 -2.73511,3.33319 -1.23752,0.757145 -2.83691,1.13651 -4.78067,1.13651 -0.89235,0 -1.7513,-0.084304 -2.58479,-0.269614 -0.832701,-0.18531 -1.59064,-0.488327 -2.28893,-0.89235 -0.699087,-0.404023 -1.27967,-0.942455 -1.75925,-1.60734 -0.479578,-0.664888 -0.808046,-1.47293 -0.993356,-2.43289l-3.18128 0c0.125661,1.38863 0.505029,2.57604 1.15242,3.57735 0.640233,0.993356 1.46498,1.80935 2.47504,2.44959 1.00131,0.630689 2.12987,1.10231 3.35864,1.40533 1.23672,0.295064 2.50844,0.446175 3.82152,0.446175 2.12907,-0.00874853 3.93048,-0.294269 5.40341,-0.8669 1.47293,-0.563882 2.65955,-1.39738 3.56065,-2.47504 0.900303,-1.08561 1.55724,-2.39869 1.96921,-3.94718 0.412772,-1.54054 0.622736,-3.28308 0.631485,-5.2356l0 -23.9384z"/>
  <path id="123456" class="fil5" d="M933.759 533.416c0,1.27967 -0.235415,2.42414 -0.715789,3.4342 -0.479578,1.00131 -1.14447,1.86026 -1.99466,2.5673 -0.841449,0.70704 -1.80935,1.24547 -2.90372,1.61609 -1.09436,0.378573 -2.25553,0.563882 -3.47635,0.563882 -0.749192,0 -1.47293,-0.117707 -2.16327,-0.353918 -0.690339,-0.235415 -1.31307,-0.580584 -1.86026,-1.02676 -0.547181,-0.446175 -0.975859,-0.993356 -1.29637,-1.62405 -0.319719,-0.631485 -0.479578,-1.34727 -0.487532,-2.14657 0.00795321,-1.01006 0.260865,-1.84355 0.740444,-2.49174 0.488327,-0.648187 1.14447,-1.16992 1.96921,-1.54849 0.825543,-0.387321 1.768,-0.690339 2.81146,-0.909052 1.04426,-0.218713 2.12987,-0.404023 3.26638,-0.555929 1.12776,-0.151111 2.23883,-0.319719 3.33319,-0.505029 0.294269,-0.0501052 0.622736,-0.117707 0.984607,-0.202011 0.361871,-0.0835087 0.698292,-0.202011 1.01006,-0.353122 0.31097,-0.151906 0.538432,-0.353918 0.68159,-0.606034l0.101006 0 0 4.14124zm-13.7869 -7.97945c0.0413567,-1.41408 0.369824,-2.5673 0.975859,-3.45965 0.606034,-0.89235 1.42283,-1.54849 2.45834,-1.96921 1.03471,-0.429473 2.21338,-0.640233 3.5352,-0.631485 0.942455,-0.00874853 1.8181,0.0676023 2.64285,0.235415 0.815999,0.159859 1.53974,0.438222 2.17123,0.833496 0.622736,0.395274 1.11106,0.934502 1.46498,1.63279 0.353122,0.699087 0.529684,1.58269 0.538432,2.6516 0,0.715789 -0.0922572,1.28762 -0.269614,1.72585 -0.176561,0.437426 -0.446175,0.773847 -0.790549,1.01006 -0.345169,0.235415 -0.774643,0.411976 -1.27967,0.52173 -0.513777,0.117707 -1.09436,0.209965 -1.7505,0.277567 -1.38068,0.151111 -2.74465,0.311766 -4.09113,0.479578 -1.34648,0.168608 -2.60945,0.404023 -3.79607,0.70704 -1.19537,0.311766 -2.23883,0.749192 -3.15663,1.31307 -0.909052,0.572631 -1.63279,1.32978 -2.14657,2.28098 -0.52173,0.943251 -0.790549,2.14657 -0.799297,3.6028 0.00874853,1.31307 0.235415,2.44959 0.690339,3.40875 0.454128,0.959952 1.07766,1.7513 1.87696,2.37403 0.799297,0.622736 1.72585,1.08561 2.77726,1.38863 1.05221,0.303017 2.18872,0.454924 3.39284,0.454924 1.24547,0 2.33983,-0.118503 3.28229,-0.353918 0.942455,-0.235415 1.77595,-0.580584 2.50844,-1.02676 0.723742,-0.454924 1.38863,-1.01006 1.98671,-1.66699 0.597286,-0.65614 1.16992,-1.40533 1.7171,-2.25553l0.101006 0c-0.0174971,0.9178 0.066807,1.70835 0.252117,2.39073 0.176561,0.68159 0.538432,1.20332 1.07766,1.58189 0.538432,0.379368 1.34648,0.563882 2.40744,0.572631 0.420725,0 0.782596,-0.0167017 1.09357,-0.042152 0.311766,-0.0334035 0.631485,-0.084304 0.976654,-0.159859l0 -2.67705c-0.126456,0.0509005 -0.286316,0.101006 -0.462877,0.143158 -0.18531,0.0341988 -0.361871,0.0588537 -0.547181,0.0588537 -0.631485,0 -1.10231,-0.167813 -1.40533,-0.505029 -0.311766,-0.327672 -0.462877,-0.799297 -0.462877,-1.41408l0 -13.8378c-0.00874853,-1.38863 -0.194058,-2.57525 -0.555929,-3.5519 -0.361871,-0.975859 -0.8669,-1.77595 -1.49838,-2.40744 -0.631485,-0.630689 -1.36318,-1.12776 -2.17997,-1.48089 -0.815999,-0.353918 -1.68369,-0.598081 -2.6007,-0.741239 -0.909052,-0.142362 -1.83481,-0.209965 -2.76056,-0.202011 -1.49838,0 -2.87031,0.168608 -4.12453,0.505029 -1.24627,0.337216 -2.33983,0.867695 -3.27434,1.57474 -0.934502,0.70704 -1.67495,1.60734 -2.21417,2.70966 -0.547181,1.11106 -0.858151,2.42414 -0.942455,3.94797l3.18208 0z"/>
  <path id="1234567" class="fil5" d="M948.355 509.629l-3.18128 0 0 7.82834 -4.54526 0 0 2.67625 4.54526 0 0 17.8279c-0.0254503,1.47293 0.142362,2.6349 0.505029,3.49305 0.353122,0.858947 0.950408,1.47293 1.7839,1.83481 0.842245,0.361871 1.96126,0.539228 3.36739,0.530479 0.479578,-0.00874853 0.950408,-0.0254503 1.41408,-0.0501052 0.462877,-0.0341988 0.933707,-0.0509005 1.41408,-0.0509005l0 -2.72716c-0.909052,0.101006 -1.8181,0.151111 -2.72716,0.151111 -0.749192,-0.0501052 -1.30512,-0.218713 -1.67574,-0.49628 -0.369824,-0.277567 -0.622736,-0.664888 -0.740444,-1.16117 -0.117707,-0.488327 -0.168608,-1.08641 -0.159859,-1.77675l0 -17.575 5.3032 0 0 -2.67625 -5.3032 0 0 -7.82834z"/>
  <path id="12345678" class="fil5" d="M977.344 509.629l-3.18128 0 0 7.82834 -4.54526 0 0 2.67625 4.54526 0 0 17.8279c-0.0254503,1.47293 0.142362,2.6349 0.505029,3.49305 0.353122,0.858947 0.950408,1.47293 1.7839,1.83481 0.842245,0.361871 1.96126,0.539228 3.36739,0.530479 0.479578,-0.00874853 0.950408,-0.0254503 1.41408,-0.0501052 0.462877,-0.0341988 0.933707,-0.0509005 1.41408,-0.0509005l0 -2.72716c-0.909052,0.101006 -1.8181,0.151111 -2.72716,0.151111 -0.749192,-0.0501052 -1.30512,-0.218713 -1.67574,-0.49628 -0.369824,-0.277567 -0.622736,-0.664888 -0.740444,-1.16117 -0.117707,-0.488327 -0.168608,-1.08641 -0.159859,-1.77675l0 -17.575 5.3032 0 0 -2.67625 -5.3032 0 0 -7.82834z"/>
  <path id="123456789" class="fil5" d="M987.192 543.517l3.18128 0 0 -15.2018c0.0254503,-1.27888 0.227462,-2.46549 0.614783,-3.5519 0.378573,-1.07686 0.917005,-2.02807 1.61609,-2.82816 0.70704,-0.808046 1.55724,-1.43078 2.55855,-1.87696 0.993356,-0.446175 2.12987,-0.672841 3.39204,-0.68159 1.27967,0.00874853 2.34858,0.202011 3.20673,0.597286 0.858947,0.39607 1.53179,0.943251 2.03682,1.65824 0.497076,0.70704 0.850198,1.54054 1.06096,2.49174 0.218713,0.959157 0.319719,2.00341 0.311766,3.13118l0 16.2619 3.18128 0 0 -16.767c0.00874853,-1.55724 -0.143158,-2.95462 -0.462877,-4.19214 -0.311766,-1.23672 -0.833496,-2.28893 -1.56599,-3.16458 -0.723742,-0.8669 -1.70835,-1.54054 -2.93712,-1.99466 -1.22877,-0.462877 -2.75261,-0.699087 -4.57866,-0.699087 -1.24627,0.00874853 -2.42414,0.227462 -3.54395,0.665684 -1.11981,0.437426 -2.09567,1.05141 -2.92917,1.83481 -0.841449,0.782596 -1.45623,1.7004 -1.86026,2.75181l-0.101006 0 0 -14.4939 -3.18128 0 0 36.0591z"/>
  <path id="12345678910" class="fil5" d="M1036.28 531.345c0.0509005,-1.47293 -0.042152,-2.92042 -0.286316,-4.3345 -0.252117,-1.41408 -0.65614,-2.74386 -1.22877,-3.98138 -0.563882,-1.24547 -1.30433,-2.33983 -2.22213,-3.28229 -0.909052,-0.951204 -2.01137,-1.69244 -3.29104,-2.23088 -1.27967,-0.530479 -2.76056,-0.808046 -4.4355,-0.816795 -1.65824,0.00874853 -3.12323,0.269614 -4.4029,0.774643 -1.27888,0.505029 -2.38994,1.20412 -3.31569,2.10442 -0.934502,0.89235 -1.69244,1.91911 -2.28973,3.08903 -0.597286,1.16992 -1.04346,2.41539 -1.32978,3.74596 -0.286316,1.32978 -0.429473,2.69296 -0.429473,4.07363 0,1.86821 0.218713,3.62746 0.673637,5.2857 0.454128,1.65824 1.15322,3.11448 2.10442,4.39415 0.950408,1.27092 2.17123,2.27223 3.65291,2.99597 1.48964,0.724537 3.26559,1.09436 5.3366,1.11186 2.17997,-0.00874853 4.04023,-0.379368 5.56327,-1.11186 1.52383,-0.731695 2.76056,-1.79265 3.70381,-3.18128 0.951204,-1.38863 1.6495,-3.07232 2.09567,-5.05029l-3.18128 0c-0.328468,1.32182 -0.842245,2.48299 -1.54054,3.47635 -0.690339,1.00131 -1.58269,1.77595 -2.67705,2.33983 -1.09436,0.555929 -2.41539,0.841449 -3.96388,0.850198 -1.22082,-0.00874853 -2.29848,-0.218713 -3.23218,-0.622736 -0.934502,-0.404023 -1.74255,-0.951204 -2.41618,-1.65029 -0.673637,-0.689543 -1.22002,-1.48089 -1.6495,-2.36449 -0.438222,-0.884397 -0.757941,-1.8014 -0.959952,-2.76135 -0.209965,-0.967905 -0.319719,-1.91911 -0.327672,-2.85361l20.0492 0zm-20.0492 -2.67625c0.125661,-1.19537 0.404023,-2.34858 0.824748,-3.4509 0.420725,-1.11106 0.993356,-2.09567 1.70835,-2.98007 0.715789,-0.874853 1.57394,-1.56519 2.584,-2.07897 1.01006,-0.512982 2.17202,-0.773847 3.46839,-0.782596 1.28762,0.00874853 2.44084,0.269614 3.44215,0.774643 1.01006,0.505029 1.869,1.19457 2.57604,2.07022 0.70704,0.875648 1.24547,1.86026 1.63279,2.97132 0.378573,1.11106 0.589333,2.26428 0.631485,3.47635l-16.868 0z"/>
  <path id="1234567891011" class="fil5" d="M1053.4 531.648c-0.0922572,2.19747 0.202011,4.09113 0.875648,5.68177 0.68159,1.59064 1.6662,2.90372 2.97132,3.92252 1.30433,1.02676 2.84486,1.79265 4.63752,2.28098 1.79265,0.497076 3.76266,0.741239 5.90923,0.741239 2.12112,-0.00874853 3.93922,-0.21076 5.45431,-0.589333 1.52304,-0.387321 2.78601,-0.901099 3.79607,-1.53258 1.01801,-0.639438 1.82606,-1.33773 2.43209,-2.10362 0.614783,-0.765894 1.06891,-1.53258 1.37193,-2.30643 0.303017,-0.774643 0.505029,-1.48964 0.598081,-2.14657 0.101006,-0.664888 0.143158,-1.20332 0.134409,-1.62484 -0.00874853,-1.47293 -0.252117,-2.73511 -0.740444,-3.78732 -0.488327,-1.05221 -1.16196,-1.93581 -2.02011,-2.6683 -0.858947,-0.723742 -1.84355,-1.32978 -2.97132,-1.80935 -1.11981,-0.488327 -2.32313,-0.89235 -3.61076,-1.22957l-8.7875 -2.17123c-0.993356,-0.227462 -1.89445,-0.555929 -2.7192,-0.993356 -0.815999,-0.429473 -1.47293,-1.01006 -1.96921,-1.74255 -0.497076,-0.723742 -0.749192,-1.6495 -0.765894,-2.76931 0.00795321,-1.33773 0.260865,-2.45754 0.748397,-3.38329 0.497076,-0.9178 1.16196,-1.6495 2.01216,-2.21338 0.841449,-0.555929 1.80935,-0.959952 2.88701,-1.20412 1.07766,-0.252117 2.20542,-0.378573 3.39204,-0.37062 1.28762,0 2.50844,0.168608 3.66166,0.522526 1.16117,0.345169 2.18793,0.858151 3.09698,1.55724 0.909052,0.689543 1.64154,1.54849 2.18077,2.584 0.546385,1.03471 0.849403,2.23883 0.909052,3.61871l3.4342 0c0,-1.47293 -0.227462,-2.81066 -0.682385,-3.99808 -0.462877,-1.18662 -1.10231,-2.23883 -1.93581,-3.13118 -0.833496,-0.900303 -1.80935,-1.65824 -2.92917,-2.26428 -1.11902,-0.597286 -2.33983,-1.05141 -3.66166,-1.36318 -1.31307,-0.303017 -2.69296,-0.454924 -4.12374,-0.454924 -2.02011,0.00874853 -3.75471,0.252912 -5.19345,0.715789 -1.43158,0.462877 -2.62615,1.07766 -3.5694,1.83481 -0.933707,0.765894 -1.67495,1.59939 -2.21338,2.49969 -0.530479,0.901099 -0.909052,1.8014 -1.12776,2.6858 -0.218713,0.891555 -0.328468,1.69165 -0.319719,2.41539 0.00795321,1.39738 0.235415,2.584 0.672841,3.5686 0.438222,0.993356 1.04426,1.8181 1.8014,2.47504 0.757941,0.664888 1.62484,1.20332 2.59275,1.62405 0.975859,0.42152 1.99466,0.757941 3.06358,1.01881l8.03035 1.96921c0.849403,0.194058 1.6996,0.454924 2.5665,0.783391 0.867695,0.327672 1.66699,0.740444 2.39948,1.24547 0.731695,0.505029 1.32103,1.11981 1.7672,1.86026 0.446175,0.732491 0.68159,1.60734 0.690339,2.62615 -0.00874853,1.05221 -0.218713,1.97796 -0.631485,2.77726 -0.404023,0.808046 -0.951204,1.49043 -1.63279,2.07102 -0.690339,0.572631 -1.44748,1.04346 -2.28098,1.41408 -0.841449,0.361871 -1.69165,0.631485 -2.55059,0.799297 -0.8669,0.177357 -1.6829,0.260865 -2.44879,0.260865 -1.65029,0.00874853 -3.19878,-0.151111 -4.62956,-0.47083 -1.43078,-0.319719 -2.69375,-0.850198 -3.77141,-1.59064 -1.08561,-0.741239 -1.91911,-1.73459 -2.5164,-2.98882 -0.589333,-1.24547 -0.875648,-2.79396 -0.850198,-4.64626l-3.4342 0z"/>
  <path id="123456789101112" class="fil5" d="M1107.29 530.487c0,1.08561 -0.101006,2.16327 -0.303017,3.23218 -0.21076,1.06016 -0.522526,2.07022 -0.951204,3.01347 -0.438222,0.942455 -0.985403,1.7839 -1.65824,2.50844 -0.673637,0.731695 -1.47293,1.30433 -2.40744,1.7171 -0.934502,0.420725 -2.00341,0.630689 -3.21548,0.639438 -1.34648,-0.00874853 -2.53389,-0.218713 -3.5519,-0.639438 -1.01006,-0.412772 -1.87696,-0.985403 -2.59275,-1.7171 -0.70704,-0.724537 -1.28762,-1.56599 -1.72505,-2.50844 -0.446175,-0.943251 -0.765894,-1.95331 -0.967905,-3.01347 -0.202011,-1.06891 -0.303017,-2.14657 -0.303017,-3.23218 -0.00874853,-1.48964 0.142362,-2.89576 0.437426,-4.22554 0.303017,-1.33853 0.799297,-2.5164 1.49838,-3.54315 0.698292,-1.03551 1.63279,-1.84355 2.81146,-2.44164 1.18662,-0.588537 2.64285,-0.891555 4.39335,-0.900303 1.21207,0.00874853 2.28098,0.218713 3.21548,0.639438 0.934502,0.412772 1.7338,0.985403 2.40744,1.7171 0.672841,0.723742 1.22002,1.56599 1.65824,2.50844 0.428678,0.942455 0.740444,1.95251 0.951204,3.01347 0.202011,1.06891 0.303017,2.14657 0.303017,3.23218zm-20.8581 22.6762l3.18208 0 0 -14.5957 0.101006 0c0.344374,0.934502 0.824748,1.75925 1.43874,2.46629 0.614783,0.714993 1.32978,1.30433 2.12987,1.7847 0.808046,0.487532 1.68369,0.850198 2.60945,1.08561 0.933707,0.244164 1.88491,0.37062 2.86156,0.37062 1.58269,-0.00874853 3.00472,-0.252912 4.26769,-0.724537 1.25422,-0.479578 2.34858,-1.14447 3.28229,-2.00341 0.934502,-0.858151 1.70914,-1.86821 2.32313,-3.02142 0.622736,-1.15322 1.07766,-2.41539 1.38943,-3.77062 0.303017,-1.36398 0.454128,-2.78601 0.454128,-4.26769 0,-1.48168 -0.151111,-2.90372 -0.454128,-4.26769 -0.311766,-1.36318 -0.766689,-2.6174 -1.38943,-3.77062 -0.613988,-1.15322 -1.38863,-2.16327 -2.32313,-3.02222 -0.933707,-0.858151 -2.02807,-1.52304 -3.28229,-2.00262 -1.26297,-0.471625 -2.685,-0.715789 -4.26769,-0.724537 -1.40533,0.00874853 -2.71841,0.23621 -3.94797,0.690339 -1.22002,0.462877 -2.29768,1.11106 -3.21469,1.96126 -0.926549,0.850198 -1.63359,1.869 -2.12987,3.05562l-0.101006 0 0 -4.94928 -2.92917 0 0 35.7059z"/>
  <path id="12345678910111213" class="fil5" d="M1137.34 531.345c0.0509005,-1.47293 -0.042152,-2.92042 -0.286316,-4.3345 -0.252117,-1.41408 -0.65614,-2.74386 -1.22877,-3.98138 -0.563882,-1.24547 -1.30433,-2.33983 -2.22213,-3.28229 -0.909052,-0.951204 -2.01137,-1.69244 -3.29104,-2.23088 -1.27967,-0.530479 -2.76056,-0.808046 -4.4355,-0.816795 -1.65824,0.00874853 -3.12323,0.269614 -4.4029,0.774643 -1.27888,0.505029 -2.38994,1.20412 -3.31569,2.10442 -0.934502,0.89235 -1.69244,1.91911 -2.28973,3.08903 -0.597286,1.16992 -1.04346,2.41539 -1.32978,3.74596 -0.286316,1.32978 -0.429473,2.69296 -0.429473,4.07363 0,1.86821 0.218713,3.62746 0.673637,5.2857 0.454128,1.65824 1.15322,3.11448 2.10442,4.39415 0.950408,1.27092 2.17123,2.27223 3.65291,2.99597 1.48964,0.724537 3.26559,1.09436 5.3366,1.11186 2.17997,-0.00874853 4.04023,-0.379368 5.56327,-1.11186 1.52383,-0.731695 2.76056,-1.79265 3.70381,-3.18128 0.951204,-1.38863 1.6495,-3.07232 2.09567,-5.05029l-3.18128 0c-0.328468,1.32182 -0.842245,2.48299 -1.54054,3.47635 -0.690339,1.00131 -1.58269,1.77595 -2.67705,2.33983 -1.09436,0.555929 -2.41539,0.841449 -3.96388,0.850198 -1.22082,-0.00874853 -2.29848,-0.218713 -3.23218,-0.622736 -0.934502,-0.404023 -1.74255,-0.951204 -2.41618,-1.65029 -0.673637,-0.689543 -1.22002,-1.48089 -1.6495,-2.36449 -0.438222,-0.884397 -0.757941,-1.8014 -0.959952,-2.76135 -0.209965,-0.967905 -0.319719,-1.91911 -0.327672,-2.85361l20.0492 0zm-20.0492 -2.67625c0.125661,-1.19537 0.404023,-2.34858 0.824748,-3.4509 0.420725,-1.11106 0.993356,-2.09567 1.70835,-2.98007 0.715789,-0.874853 1.57394,-1.56519 2.584,-2.07897 1.01006,-0.512982 2.17202,-0.773847 3.46839,-0.782596 1.28762,0.00874853 2.44084,0.269614 3.44215,0.774643 1.01006,0.505029 1.869,1.19457 2.57604,2.07022 0.70704,0.875648 1.24547,1.86026 1.63279,2.97132 0.378573,1.11106 0.589333,2.26428 0.631485,3.47635l-16.868 0z"/>
  <path id="1234567891011121314" class="fil5" d="M1163.55 531.345c0.0509005,-1.47293 -0.042152,-2.92042 -0.286316,-4.3345 -0.252117,-1.41408 -0.65614,-2.74386 -1.22877,-3.98138 -0.563882,-1.24547 -1.30433,-2.33983 -2.22213,-3.28229 -0.909052,-0.951204 -2.01137,-1.69244 -3.29104,-2.23088 -1.27967,-0.530479 -2.76056,-0.808046 -4.4355,-0.816795 -1.65824,0.00874853 -3.12323,0.269614 -4.4029,0.774643 -1.27888,0.505029 -2.38994,1.20412 -3.31569,2.10442 -0.934502,0.89235 -1.69244,1.91911 -2.28973,3.08903 -0.597286,1.16992 -1.04346,2.41539 -1.32978,3.74596 -0.286316,1.32978 -0.429473,2.69296 -0.429473,4.07363 0,1.86821 0.218713,3.62746 0.673637,5.2857 0.454128,1.65824 1.15322,3.11448 2.10442,4.39415 0.950408,1.27092 2.17123,2.27223 3.65291,2.99597 1.48964,0.724537 3.26559,1.09436 5.3366,1.11186 2.17997,-0.00874853 4.04023,-0.379368 5.56327,-1.11186 1.52383,-0.731695 2.76056,-1.79265 3.70381,-3.18128 0.951204,-1.38863 1.6495,-3.07232 2.09567,-5.05029l-3.18128 0c-0.328468,1.32182 -0.842245,2.48299 -1.54054,3.47635 -0.690339,1.00131 -1.58269,1.77595 -2.67705,2.33983 -1.09436,0.555929 -2.41539,0.841449 -3.96388,0.850198 -1.22082,-0.00874853 -2.29848,-0.218713 -3.23218,-0.622736 -0.934502,-0.404023 -1.74255,-0.951204 -2.41618,-1.65029 -0.673637,-0.689543 -1.22002,-1.48089 -1.6495,-2.36449 -0.438222,-0.884397 -0.757941,-1.8014 -0.959952,-2.76135 -0.209965,-0.967905 -0.319719,-1.91911 -0.327672,-2.85361l20.0492 0zm-20.0492 -2.67625c0.125661,-1.19537 0.404023,-2.34858 0.824748,-3.4509 0.420725,-1.11106 0.993356,-2.09567 1.70835,-2.98007 0.715789,-0.874853 1.57394,-1.56519 2.584,-2.07897 1.01006,-0.512982 2.17202,-0.773847 3.46839,-0.782596 1.28762,0.00874853 2.44084,0.269614 3.44215,0.774643 1.01006,0.505029 1.869,1.19457 2.57604,2.07022 0.70704,0.875648 1.24547,1.86026 1.63279,2.97132 0.378573,1.11106 0.589333,2.26428 0.631485,3.47635l-16.868 0z"/>
  <path id="123456789101112131415" class="fil5" d="M1169.91 530.487c0,-1.08561 0.101006,-2.16327 0.303017,-3.23218 0.209965,-1.06096 0.52173,-2.07102 0.959157,-3.01347 0.429473,-0.942455 0.976654,-1.7847 1.6495,-2.50844 0.673637,-0.731695 1.47293,-1.30433 2.40744,-1.7171 0.934502,-0.420725 2.00341,-0.630689 3.21548,-0.639438 1.35523,0.00874853 2.53389,0.218713 3.5519,0.639438 1.01006,0.412772 1.87696,0.985403 2.59275,1.7171 0.70704,0.723742 1.28762,1.56599 1.72505,2.50844 0.446175,0.942455 0.766689,1.95251 0.968701,3.01347 0.209965,1.06891 0.303017,2.14657 0.303017,3.23218 0,1.08561 -0.0930525,2.16327 -0.303017,3.23218 -0.202011,1.06016 -0.522526,2.07022 -0.968701,3.01347 -0.437426,0.942455 -1.01801,1.7839 -1.72505,2.50844 -0.715789,0.731695 -1.58269,1.30433 -2.59275,1.7171 -1.01801,0.420725 -2.19668,0.630689 -3.5519,0.639438 -1.21207,-0.00874853 -2.28098,-0.218713 -3.21548,-0.639438 -0.934502,-0.412772 -1.7338,-0.985403 -2.40744,-1.7171 -0.672841,-0.724537 -1.22002,-1.56599 -1.6495,-2.50844 -0.437426,-0.943251 -0.749192,-1.95331 -0.959157,-3.01347 -0.202011,-1.06891 -0.303017,-2.14657 -0.303017,-3.23218zm20.8573 -23.0293l-3.18128 0 0 14.9489 -0.101006 0c-0.345169,-0.934502 -0.825543,-1.75925 -1.43953,-2.46629 -0.614783,-0.715789 -1.32182,-1.31307 -2.12987,-1.79265 -0.808046,-0.479578 -1.6829,-0.842245 -2.60945,-1.08561 -0.925753,-0.23621 -1.88491,-0.362666 -2.86156,-0.362666 -1.58269,0.00874853 -3.00472,0.252912 -4.25894,0.724537 -1.26297,0.479578 -2.35654,1.14447 -3.29104,2.00262 -0.934502,0.858947 -1.70914,1.869 -2.32313,3.02222 -0.622736,1.15322 -1.07766,2.40744 -1.38863,3.77062 -0.303017,1.36398 -0.454924,2.78601 -0.454924,4.26769 0,1.48168 0.151906,2.90372 0.454924,4.26769 0.31097,1.35523 0.765894,2.6174 1.38863,3.77062 0.613988,1.15322 1.38863,2.16327 2.32313,3.02142 0.934502,0.858947 2.02807,1.52383 3.29104,2.00341 1.25422,0.471625 2.67625,0.715789 4.25894,0.724537 0.959952,0 1.91036,-0.143158 2.86156,-0.412772 0.951204,-0.277567 1.84355,-0.664888 2.69375,-1.16992 0.850198,-0.505029 1.59939,-1.11106 2.24758,-1.8014 0.639438,-0.698292 1.14447,-1.47293 1.48964,-2.32313l0.101006 0 0 4.94928 2.92917 0 0 -36.0591z"/>
  <path id="12345678910111213141516" class="fil5" d="M1221.88 516.699c-1.99466,0.0174971 -3.76266,0.379368 -5.29445,1.10311 -1.53179,0.723742 -2.81941,1.7171 -3.85492,2.98802 -1.04346,1.27092 -1.83481,2.7359 -2.37403,4.3854 -0.529684,1.65824 -0.799297,3.42545 -0.799297,5.31115 0,1.88571 0.269614,3.65291 0.799297,5.31115 0.539228,1.6495 1.33057,3.11448 2.37403,4.3854 1.03551,1.27092 2.32313,2.26428 3.85492,2.98802 1.53179,0.723742 3.29979,1.08561 5.29445,1.10311 1.99466,-0.0174971 3.76266,-0.379368 5.29445,-1.10311 1.53179,-0.723742 2.81941,-1.7171 3.86367,-2.98802 1.04346,-1.27092 1.82606,-2.7359 2.36528,-4.3854 0.529684,-1.65824 0.799297,-3.42545 0.799297,-5.31115 0,-1.88571 -0.269614,-3.65291 -0.799297,-5.31115 -0.539228,-1.6495 -1.32182,-3.11448 -2.36528,-4.3854 -1.04426,-1.27092 -2.33188,-2.26428 -3.86367,-2.98802 -1.53179,-0.723742 -3.29979,-1.08561 -5.29445,-1.10311zm0 2.67705c1.22082,0.00874853 2.32313,0.21076 3.29979,0.622736 0.975859,0.404023 1.82606,0.967905 2.55855,1.68369 0.732491,0.723742 1.33853,1.54849 1.82685,2.49094 0.487532,0.943251 0.850198,1.95331 1.09357,3.02222 0.244164,1.07766 0.362666,2.17123 0.362666,3.29104 0,1.11981 -0.118503,2.21338 -0.362666,3.29104 -0.243368,1.06891 -0.606034,2.07897 -1.09357,3.02142 -0.488327,0.943251 -1.09436,1.768 -1.82685,2.48379 -0.732491,0.723742 -1.58269,1.28762 -2.55855,1.69165 -0.976654,0.411976 -2.07897,0.613988 -3.29979,0.622736 -1.22082,-0.00874853 -2.32313,-0.21076 -3.29979,-0.622736 -0.975859,-0.404023 -1.82606,-0.967905 -2.55855,-1.69165 -0.732491,-0.715789 -1.33853,-1.54054 -1.82685,-2.48379 -0.487532,-0.942455 -0.849403,-1.95251 -1.09357,-3.02142 -0.244164,-1.07766 -0.361871,-2.17123 -0.361871,-3.29104 0,-1.11981 0.117707,-2.21338 0.361871,-3.29104 0.244164,-1.06891 0.606034,-2.07897 1.09357,-3.02222 0.488327,-0.942455 1.09436,-1.7672 1.82685,-2.49094 0.732491,-0.715789 1.58269,-1.27967 2.55855,-1.68369 0.976654,-0.411976 2.07897,-0.613988 3.29979,-0.622736z"/>
  <path id="1234567891011121314151617" class="fil5" d="M1249 517.457l-5.15129 0 0 -2.27303c0,-0.714993 0.0246549,-1.37193 0.066807,-1.98592 0.042152,-0.606034 0.168608,-1.14526 0.37062,-1.59939 0.202011,-0.462877 0.538432,-0.816795 1.01801,-1.07766 0.480374,-0.252117 1.15322,-0.387321 2.02886,-0.387321 0.37062,0 0.749192,0.0254503 1.11981,0.0676023 0.378573,0.042152 0.773847,0.109754 1.20332,0.18531l0 -2.72716c-0.49628,-0.0755555 -0.959157,-0.126456 -1.38068,-0.159859 -0.420725,-0.0254503 -0.850198,-0.042152 -1.29558,-0.042152 -1.27172,0 -2.31518,0.193263 -3.14868,0.555134 -0.824748,0.37062 -1.47293,0.89235 -1.93581,1.57474 -0.47083,0.672841 -0.799297,1.48089 -0.975859,2.40664 -0.18531,0.934502 -0.269614,1.96126 -0.252912,3.08903l0 2.37403 -4.44425 0 0 2.67625 4.44425 0 0 23.3832 3.18208 0 0 -23.3832 5.15129 0 0 -2.67625z"/>
  <path id="123456789101112131415161718" class="fil5" d="M1264.86 531.648c-0.0922572,2.19747 0.202011,4.09113 0.875648,5.68177 0.68159,1.59064 1.6662,2.90372 2.97132,3.92252 1.30433,1.02676 2.84486,1.79265 4.63752,2.28098 1.79265,0.497076 3.76266,0.741239 5.90923,0.741239 2.12112,-0.00874853 3.93922,-0.21076 5.45431,-0.589333 1.52304,-0.387321 2.78601,-0.901099 3.79607,-1.53258 1.01801,-0.639438 1.82606,-1.33773 2.43209,-2.10362 0.614783,-0.765894 1.06891,-1.53258 1.37193,-2.30643 0.303017,-0.774643 0.505029,-1.48964 0.598081,-2.14657 0.101006,-0.664888 0.143158,-1.20332 0.134409,-1.62484 -0.00874853,-1.47293 -0.252117,-2.73511 -0.740444,-3.78732 -0.488327,-1.05221 -1.16196,-1.93581 -2.02011,-2.6683 -0.858947,-0.723742 -1.84355,-1.32978 -2.97132,-1.80935 -1.11981,-0.488327 -2.32313,-0.89235 -3.61076,-1.22957l-8.7875 -2.17123c-0.993356,-0.227462 -1.89445,-0.555929 -2.7192,-0.993356 -0.815999,-0.429473 -1.47293,-1.01006 -1.96921,-1.74255 -0.497076,-0.723742 -0.749192,-1.6495 -0.765894,-2.76931 0.00795321,-1.33773 0.260865,-2.45754 0.748397,-3.38329 0.497076,-0.9178 1.16196,-1.6495 2.01216,-2.21338 0.841449,-0.555929 1.80935,-0.959952 2.88701,-1.20412 1.07766,-0.252117 2.20542,-0.378573 3.39204,-0.37062 1.28762,0 2.50844,0.168608 3.66166,0.522526 1.16117,0.345169 2.18793,0.858151 3.09698,1.55724 0.909052,0.689543 1.64154,1.54849 2.18077,2.584 0.546385,1.03471 0.849403,2.23883 0.909052,3.61871l3.4342 0c0,-1.47293 -0.227462,-2.81066 -0.682385,-3.99808 -0.462877,-1.18662 -1.10231,-2.23883 -1.93581,-3.13118 -0.833496,-0.900303 -1.80935,-1.65824 -2.92917,-2.26428 -1.11902,-0.597286 -2.33983,-1.05141 -3.66166,-1.36318 -1.31307,-0.303017 -2.69296,-0.454924 -4.12374,-0.454924 -2.02011,0.00874853 -3.75471,0.252912 -5.19345,0.715789 -1.43158,0.462877 -2.62615,1.07766 -3.5694,1.83481 -0.933707,0.765894 -1.67495,1.59939 -2.21338,2.49969 -0.530479,0.901099 -0.909052,1.8014 -1.12776,2.6858 -0.218713,0.891555 -0.328468,1.69165 -0.319719,2.41539 0.00795321,1.39738 0.235415,2.584 0.672841,3.5686 0.438222,0.993356 1.04426,1.8181 1.8014,2.47504 0.757941,0.664888 1.62484,1.20332 2.59275,1.62405 0.975859,0.42152 1.99466,0.757941 3.06358,1.01881l8.03035 1.96921c0.849403,0.194058 1.6996,0.454924 2.5665,0.783391 0.867695,0.327672 1.66699,0.740444 2.39948,1.24547 0.731695,0.505029 1.32103,1.11981 1.7672,1.86026 0.446175,0.732491 0.68159,1.60734 0.690339,2.62615 -0.00874853,1.05221 -0.218713,1.97796 -0.631485,2.77726 -0.404023,0.808046 -0.951204,1.49043 -1.63279,2.07102 -0.690339,0.572631 -1.44748,1.04346 -2.28098,1.41408 -0.841449,0.361871 -1.69165,0.631485 -2.55059,0.799297 -0.8669,0.177357 -1.6829,0.260865 -2.44879,0.260865 -1.65029,0.00874853 -3.19878,-0.151111 -4.62956,-0.47083 -1.43078,-0.319719 -2.69375,-0.850198 -3.77141,-1.59064 -1.08561,-0.741239 -1.91911,-1.73459 -2.5164,-2.98882 -0.589333,-1.24547 -0.875648,-2.79396 -0.850198,-4.64626l-3.4342 0z"/>
  <path id="12345678910111213141516171819" class="fil5" d="M1297.94 543.517l3.18128 0 0 -26.0595 -3.18128 0 0 26.0595zm0 -30.9587l3.18128 0 0 -5.10039 -3.18128 0 0 5.10039z"/>
  <path id="1234567891011121314151617181920" class="fil5" d="M1317.69 540.537c-1.46498,-0.00795321 -2.7359,-0.303017 -3.81356,-0.874853 -1.07686,-0.572631 -1.96921,-1.35523 -2.67625,-2.33188 -0.70704,-0.975859 -1.22877,-2.07897 -1.58269,-3.31649 -0.345169,-1.22877 -0.512982,-2.49969 -0.512982,-3.82947 0,-1.08561 0.101006,-2.15452 0.31097,-3.19878 0.21076,-1.04346 0.530479,-2.02807 0.967905,-2.93712 0.429473,-0.9178 0.984607,-1.72585 1.66699,-2.42414 0.672841,-0.699087 1.48089,-1.24627 2.41539,-1.64154 0.942455,-0.395274 2.01216,-0.597286 3.22423,-0.606034 1.20332,0.00874853 2.26348,0.218713 3.18128,0.631485 0.9178,0.411976 1.70835,0.984607 2.36528,1.7004 0.65614,0.723742 1.19537,1.53974 1.61609,2.46549 0.420725,0.926549 0.732491,1.90241 0.925753,2.92917 0.202011,1.02755 0.295064,2.05431 0.295064,3.08107 0,1.33853 -0.177357,2.62615 -0.539228,3.85492 -0.353122,1.22877 -0.883601,2.33188 -1.59064,3.30774 -0.698292,0.976654 -1.57394,1.7513 -2.6174,2.31518 -1.05221,0.571836 -2.25633,0.8669 -3.63621,0.874853zm11.5648 -23.0794l-3.18128 0 0 4.49436 -0.101006 0c-0.429473,-0.967905 -1.05221,-1.85151 -1.869,-2.64285 -0.808046,-0.791344 -1.7672,-1.41408 -2.86156,-1.88491 -1.09436,-0.471625 -2.28098,-0.715789 -3.5519,-0.724537 -1.88571,0.00874853 -3.5527,0.362666 -5.01688,1.04426 -1.45623,0.68159 -2.685,1.62405 -3.68711,2.82816 -1.00131,1.21207 -1.7672,2.6007 -2.28098,4.18339 -0.52173,1.57394 -0.782596,3.26559 -0.782596,5.07494 0,1.869 0.218713,3.61155 0.664888,5.22764 0.454924,1.60734 1.14447,3.03017 2.09567,4.25019 0.943251,1.22082 2.16327,2.17202 3.6537,2.86236 1.48964,0.68159 3.27354,1.03471 5.3533,1.04346 1.25343,-0.00874853 2.41539,-0.235415 3.4843,-0.68159 1.06891,-0.446175 2.01137,-1.06891 2.82816,-1.869 0.816795,-0.799297 1.47293,-1.7338 1.97001,-2.80271l0.101006 0 0 3.5352c0.00795321,2.12112 -0.286316,3.92252 -0.867695,5.37875 -0.588537,1.46419 -1.49759,2.57525 -2.73511,3.33319 -1.23752,0.757145 -2.83691,1.13651 -4.78067,1.13651 -0.89235,0 -1.7513,-0.084304 -2.58479,-0.269614 -0.832701,-0.18531 -1.59064,-0.488327 -2.28893,-0.89235 -0.699087,-0.404023 -1.27967,-0.942455 -1.75925,-1.60734 -0.479578,-0.664888 -0.808046,-1.47293 -0.993356,-2.43289l-3.18128 0c0.125661,1.38863 0.505029,2.57604 1.15242,3.57735 0.640233,0.993356 1.46498,1.80935 2.47504,2.44959 1.00131,0.630689 2.12987,1.10231 3.35864,1.40533 1.23672,0.295064 2.50844,0.446175 3.82152,0.446175 2.12907,-0.00874853 3.93048,-0.294269 5.40341,-0.8669 1.47293,-0.563882 2.65955,-1.39738 3.56065,-2.47504 0.900303,-1.08561 1.55724,-2.39869 1.96921,-3.94718 0.412772,-1.54054 0.622736,-3.28308 0.631485,-5.2356l0 -23.9384z"/>
  <path id="123456789101112131415161718192021" class="fil5" d="M1335.26 543.517l3.18128 0 0 -15.2018c0.0254503,-1.27888 0.227462,-2.46549 0.614783,-3.5519 0.378573,-1.07686 0.917005,-2.02807 1.61609,-2.82816 0.70704,-0.808046 1.55724,-1.43078 2.55855,-1.87696 0.993356,-0.446175 2.12987,-0.672841 3.39204,-0.68159 1.27967,0.00874853 2.34858,0.202011 3.20673,0.597286 0.858947,0.39607 1.53179,0.943251 2.03682,1.65824 0.497076,0.70704 0.850198,1.54054 1.06096,2.49174 0.218713,0.959157 0.319719,2.00341 0.311766,3.13118l0 16.2619 3.18128 0 0 -16.767c0.00874853,-1.55724 -0.143158,-2.95462 -0.462877,-4.19214 -0.311766,-1.23672 -0.833496,-2.28893 -1.56599,-3.16458 -0.723742,-0.8669 -1.70835,-1.54054 -2.93712,-1.99466 -1.22877,-0.462877 -2.75261,-0.699087 -4.57866,-0.699087 -1.24627,0.00874853 -2.42414,0.227462 -3.54395,0.665684 -1.11981,0.437426 -2.09567,1.05141 -2.92917,1.83481 -0.841449,0.782596 -1.45623,1.7004 -1.86026,2.75181l-0.101006 0 0 -14.4939 -3.18128 0 0 36.0591z"/>
  <path id="12345678910111213141516171819202122" class="fil5" d="M1367.48 509.629l-3.18128 0 0 7.82834 -4.54526 0 0 2.67625 4.54526 0 0 17.8279c-0.0254503,1.47293 0.142362,2.6349 0.505029,3.49305 0.353122,0.858947 0.950408,1.47293 1.7839,1.83481 0.842245,0.361871 1.96126,0.539228 3.36739,0.530479 0.479578,-0.00874853 0.950408,-0.0254503 1.41408,-0.0501052 0.462877,-0.0341988 0.933707,-0.0509005 1.41408,-0.0509005l0 -2.72716c-0.909052,0.101006 -1.8181,0.151111 -2.72716,0.151111 -0.749192,-0.0501052 -1.30512,-0.218713 -1.67574,-0.49628 -0.369824,-0.277567 -0.622736,-0.664888 -0.740444,-1.16117 -0.117707,-0.488327 -0.168608,-1.08641 -0.159859,-1.77675l0 -17.575 5.3032 0 0 -2.67625 -5.3032 0 0 -7.82834z"/>
 </g>
</svg>
